<svg id="af7188fc-d1d3-4b8f-a0f6-3302fcd867d2" data-name="Capa 1" xmlns="http://www.w3.org/2000/svg" viewBox="0 0 100 100"><path d="M71.07585,34.87707a.85782.85782,0,0,1-.8576-.8576,20.24646,20.24646,0,1,0-40.49291,0,.8576.8576,0,1,1-1.71519,0,21.96165,21.96165,0,1,1,43.92329,0A.85782.85782,0,0,1,71.07585,34.87707Z" fill="#403c3c"/><path d="M56.7999,60.38662h-2.211a.8576.8576,0,1,1,0-1.71519h2.211A10.25,10.25,0,0,0,67.03856,48.43277V33.89105a.85781.85781,0,0,1,.8576-.85759h2.89717a5.59464,5.59464,0,0,1,5.58833,5.58833v2.86982a5.59453,5.59453,0,0,1-5.58833,5.58777H68.75375v1.35339A11.967,11.967,0,0,1,56.7999,60.38662ZM68.75375,45.36419h2.03958a3.8771,3.8771,0,0,0,3.87314-3.87258V38.62179a3.87757,3.87757,0,0,0-3.87314-3.87314H68.75375Z" fill="#403c3c"/><path d="M32.04576,47.07938H29.14859a5.59442,5.59442,0,0,1-5.58778-5.58777V38.62179a5.59453,5.59453,0,0,1,5.58778-5.58833h2.89717a.85781.85781,0,0,1,.8576.85759V46.22178A.85782.85782,0,0,1,32.04576,47.07938ZM29.14859,34.74865A3.87709,3.87709,0,0,0,25.276,38.62179v2.86982a3.87662,3.87662,0,0,0,3.87258,3.87258h2.03958V34.74865Z" fill="#403c3c"/><path d="M55.15952,60.38662H51.88157a2.36066,2.36066,0,0,1-2.35839-2.35783v-.91063a2.36115,2.36115,0,0,1,2.35839-2.35839h3.27795a2.36115,2.36115,0,0,1,2.35839,2.35839v.91008A2.36114,2.36114,0,0,1,55.15952,60.38662ZM51.88157,56.475a.64408.64408,0,0,0-.6432.6432v.91063a.64361.64361,0,0,0,.6432.64264h3.27795a.64408.64408,0,0,0,.6432-.64319v-.91008a.64408.64408,0,0,0-.6432-.6432Z" fill="#403c3c"/><path d="M79.48821,87.94246H62.09231a.8576.8576,0,0,1,0-1.71519H78.49048L76.34035,72.09593a10.47034,10.47034,0,0,0-3.58784-5.97134,8.40348,8.40348,0,0,0-3.44992-1.82407L63.152,62.687a.85778.85778,0,1,1,.4355-1.65936l6.11707,1.60576a10.0539,10.0539,0,0,1,4.1389,2.168A12.21469,12.21469,0,0,1,78.0293,71.7989l2.307,15.157a.858.858,0,0,1-.84811.98657Z" fill="#403c3c"/><path d="M36.0797,87.56447h0l-15.56793-.00055a.85771.85771,0,0,1-.84754-.98992L21.964,71.83463a12.20365,12.20365,0,0,1,4.19362-7.03217,10.11014,10.11014,0,0,1,4.20479-2.187l9.74454-2.83074a1.29825,1.29825,0,0,0,.35844-.16805,1.2801,1.2801,0,0,0,.55722-.91622l.39585-3.42089a16.40636,16.40636,0,0,1-3.00214-3.31537,18.487,18.487,0,0,1-1.81122-3.41307l-.83247-1.99994a.85751.85751,0,1,1,1.58342-.65883l.83247,1.99994a16.73127,16.73127,0,0,0,1.64038,3.09817,14.51844,14.51844,0,0,0,3.02224,3.24111.85721.85721,0,0,1,.32551.77552l-.45,3.89045A3.00058,3.00058,0,0,1,40.586,61.43182l-9.80037,2.84469a8.49279,8.49279,0,0,0-3.53646,1.84863,10.45862,10.45862,0,0,0-3.59621,6.00876L21.51342,85.84873l14.56628.00055a.8576.8576,0,0,1,0,1.71519Z" fill="#403c3c"/><path d="M39.0824,39.19463A30.87521,30.87521,0,0,1,35.685,38.9981a.85731.85731,0,0,1-.74146-.66162,12.75628,12.75628,0,0,1-.0737-5.55092,18.08988,18.08988,0,0,1,3.86978-7.95007,15.24648,15.24648,0,0,1,11.64119-5.65142,15.62216,15.62216,0,0,1,12.802,7.16171,18.82322,18.82322,0,0,1,1.44943,2.551l1.12615,2.33159a.85753.85753,0,0,1-1.54434.74593l-1.12615-2.331a17.22278,17.22278,0,0,0-1.316-2.32266,13.935,13.935,0,0,0-11.39106-6.42136A13.56124,13.56124,0,0,0,40.04384,25.9488,16.3758,16.3758,0,0,0,36.547,33.14512a10.907,10.907,0,0,0-.053,4.21093c12.32961,1.125,14.55623-6.06012,14.57689-6.13437a.85773.85773,0,1,1,1.64819.47569C52.623,32.03014,50.41316,39.19463,39.0824,39.19463Z" fill="#403c3c"/><path d="M49.97208,87.94246a.85781.85781,0,0,1-.8576-.85759V72.173a.8576.8576,0,1,1,1.71519,0V87.08487A.85781.85781,0,0,1,49.97208,87.94246Z" fill="#403c3c"/><path d="M49.97208,73.03058a.8576.8576,0,0,1-.60635-1.46395l5.7173-5.7173a.8575.8575,0,0,1,1.2127,1.21269l-5.71731,5.71731A.85481.85481,0,0,1,49.97208,73.03058Z" fill="#403c3c"/><path d="M49.97208,73.03058a.85481.85481,0,0,1-.60635-.25125L43.64843,67.062a.8575.8575,0,1,1,1.21269-1.21269l5.7173,5.7173a.8576.8576,0,0,1-.60634,1.46395Z" fill="#403c3c"/><path d="M63.45129,38.34932c-11.89188,0-13.08671-9.67531-13.09732-9.77469a.8575.8575,0,0,1,1.70459-.18871c.04131.35342,1.11554,8.519,11.965,8.24039a.84178.84178,0,0,1,.88048.83359.85682.85682,0,0,1-.83358.88049Q63.75641,38.3496,63.45129,38.34932Z" fill="#403c3c"/><path d="M73.80982,72.56943a7.91314,7.91314,0,0,0-2.69617-4.46167,5.81866,5.81866,0,0,0-2.36342-1.29417l-.06752-.01509-.067-.01732-.90093-.23641A22.002,22.002,0,0,1,70.44,76.64032a6.28651,6.28651,0,0,1-.53279,3.067,7.31833,7.31833,0,0,1-1.68478,1.92416q-1.12079,1.01145-2.24141,2.023h9.51554Z" fill="#eb9180"/><path d="M26.86041,72.56937a7.91317,7.91317,0,0,1,2.69616-4.46161A5.81878,5.81878,0,0,1,31.92,66.81359l.06758-.01509.06695-.01732.901-.23641A22.00052,22.00052,0,0,0,30.2303,76.64032a6.28648,6.28648,0,0,0,.53274,3.067,7.31829,7.31829,0,0,0,1.68477,1.92416q1.1208,1.01145,2.24142,2.023H25.17369Z" fill="#eb9180"/></svg>