<svg id="e679adb0-279e-46bf-9bd5-5b1740d669c2" data-name="Capa 1" xmlns="http://www.w3.org/2000/svg" viewBox="0 0 100 100"><path d="M63.33538,85.98087a.86435.86435,0,0,1-.86413-.86412V72.02722a.86413.86413,0,0,1,1.72825,0V85.11675A.86435.86435,0,0,1,63.33538,85.98087Z" fill="#403c3c"/><path d="M71.57153,85.98087a.86434.86434,0,0,1-.86412-.86412V58.9377a.86412.86412,0,0,1,1.72824,0v26.179A.86435.86435,0,0,1,71.57153,85.98087Z" fill="#403c3c"/><path d="M79.80712,85.98087a.86434.86434,0,0,1-.86412-.86412V58.9377a.86412.86412,0,0,1,1.72824,0v26.179A.86434.86434,0,0,1,79.80712,85.98087Z" fill="#403c3c"/><path d="M79.80712,59.80182a.86434.86434,0,0,1-.86412-.86412V45.30528a.86412.86412,0,0,1,1.72824,0V58.9377A.86434.86434,0,0,1,79.80712,59.80182Z" fill="#403c3c"/><path d="M71.57153,31.24925a8.61506,8.61506,0,1,1,8.61477-8.61534A8.62521,8.62521,0,0,1,71.57153,31.24925Zm0-15.50187a6.88682,6.88682,0,1,0,6.88652,6.88653A6.8946,6.8946,0,0,0,71.57153,15.74738Z" fill="#403c3c"/><path d="M86.32516,59.80182a.86435.86435,0,0,1-.86413-.86412V39.35657a4.182,4.182,0,0,0-4.17714-4.17715H61.85861a4.18053,4.18053,0,0,0-4.03594,3.09644.86408.86408,0,0,1-1.66974-.44556,5.91122,5.91122,0,0,1,5.70568-4.37912H81.28389a5.91213,5.91213,0,0,1,5.90539,5.90539V58.9377A.86435.86435,0,0,1,86.32516,59.80182Z" fill="#403c3c"/><path d="M79.80712,59.80182H69.90855a.86412.86412,0,1,1,0-1.72824h9.89857a.86412.86412,0,0,1,0,1.72824Z" fill="#403c3c"/><path d="M20.1929,85.98087a.86434.86434,0,0,1-.86412-.86412V42.53064a.86412.86412,0,1,1,1.72824,0V85.11675A.86434.86434,0,0,1,20.1929,85.98087Z" fill="#403c3c"/><path d="M28.42905,85.98087a.86434.86434,0,0,1-.86412-.86412V58.9377a.86412.86412,0,0,1,1.72824,0v26.179A.86434.86434,0,0,1,28.42905,85.98087Z" fill="#403c3c"/><path d="M36.66464,85.98087a.86434.86434,0,0,1-.86412-.86412V72.64212a.86412.86412,0,0,1,1.72824,0V85.11675A.86434.86434,0,0,1,36.66464,85.98087Z" fill="#403c3c"/><path d="M28.42905,31.24925a8.61506,8.61506,0,1,1,8.61477-8.61534A8.62474,8.62474,0,0,1,28.42905,31.24925Zm0-15.50187a6.88682,6.88682,0,1,0,6.88653,6.88653A6.89412,6.89412,0,0,0,28.42905,15.74738Z" fill="#403c3c"/><path d="M13.67486,59.80182a.86434.86434,0,0,1-.86412-.86412V39.35657a5.91213,5.91213,0,0,1,5.90539-5.90539H38.14141a.86412.86412,0,0,1,0,1.72824H18.71613A4.182,4.182,0,0,0,14.539,39.35657V58.9377A.86434.86434,0,0,1,13.67486,59.80182Z" fill="#403c3c"/><path d="M30.18205,59.80182H20.1929a.86412.86412,0,0,1,0-1.72824h9.98915a.86412.86412,0,0,1,0,1.72824Z" fill="#403c3c"/><path d="M50.23854,66.303a5.17286,5.17286,0,0,1-5.16728-5.16729.86412.86412,0,0,1,1.72824,0,3.439,3.439,0,1,0,6.87809,0c0-1.63485-1.03965-2.61093-3.7074-3.4818-1.21123-.39493-4.89893-1.59772-4.89893-5.124a5.16729,5.16729,0,1,1,10.33457,0,.86412.86412,0,0,1-1.72824,0,3.439,3.439,0,0,0-6.87809,0c0,1.57129,1.14316,2.64469,3.70683,3.48124,2.423.79042,4.8995,2.018,4.8995,5.12453A5.17287,5.17287,0,0,1,50.23854,66.303Z" fill="#403c3c"/><path d="M50.23854,49.12013a.86434.86434,0,0,1-.86412-.86412V45.82792a.86412.86412,0,0,1,1.72824,0V48.256A.86434.86434,0,0,1,50.23854,49.12013Z" fill="#403c3c"/><path d="M50.23854,68.73107a.86434.86434,0,0,1-.86412-.86412V65.43886a.86412.86412,0,0,1,1.72824,0V67.867A.86434.86434,0,0,1,50.23854,68.73107Z" fill="#403c3c"/><path d="M34.71587,64.00653a.86412.86412,0,0,1-.80168-.54063,17.70658,17.70658,0,0,1,.42138-14.01216,16.32548,16.32548,0,0,1,5.79568-6.80439,22.84217,22.84217,0,0,1,3.14594-1.63317c.59071-.26554,1.14823-.51645,1.62811-.78761a.86409.86409,0,0,1,.85061,1.50434c-.54964.31054-1.142.5772-1.76987.85906a21.18743,21.18743,0,0,0-2.92034,1.51108,14.60674,14.60674,0,0,0-5.16954,6.0933,15.95386,15.95386,0,0,0-.37974,12.62258.86431.86431,0,0,1-.80055,1.1876Z" fill="#403c3c"/><path d="M48.77752,41.41336a.8637.8637,0,0,1-.84161-.67172L47.49259,38.803l-1.93864.44275a.86388.86388,0,0,1-.38481-1.68437L47.95,36.92623a.86133.86133,0,0,1,1.03458.64978l.63572,2.78083a.8637.8637,0,0,1-.64978,1.03458A.84279.84279,0,0,1,48.77752,41.41336Z" fill="#403c3c"/><path d="M49.81379,74.47444a15.879,15.879,0,0,1-7.28933-1.67705,22.90626,22.90626,0,0,1-2.9856-1.90714c-.47707-.34374-.9277-.66834-1.35976-.93388a.86423.86423,0,0,1,.90463-1.47283c.48663.29929.962.6419,1.46552,1.00476a21.19289,21.19289,0,0,0,2.76732,1.77325,14.61591,14.61591,0,0,0,7.86148,1.43008,15.95556,15.95556,0,0,0,11.12162-5.98247.86407.86407,0,0,1,1.36144,1.0644,17.70722,17.70722,0,0,1-12.34579,6.64069C50.81068,74.45475,50.30886,74.47444,49.81379,74.47444Z" fill="#403c3c"/><path d="M36.23258,71.2548a.86229.86229,0,0,1-.63346-.27622l-1.9409-2.09111a.86443.86443,0,0,1,.04557-1.22136l2.09111-1.94033a.86423.86423,0,1,1,1.17578,1.26692L35.513,68.34514l1.353,1.45765a.86411.86411,0,0,1-.63346,1.452Z" fill="#403c3c"/><path d="M66.2951,61.42936l-.04275-.00113a.86344.86344,0,0,1-.82081-.90519c.02363-.48663.0737-.98057.12715-1.50433a21.1814,21.1814,0,0,0,.15246-3.286,14.61144,14.61144,0,0,0-2.69251-7.52336A15.95381,15.95381,0,0,0,52.27676,41.5692a.86411.86411,0,1,1,.24079-1.71137A17.70639,17.70639,0,0,1,64.442,47.2293a16.32822,16.32822,0,0,1,2.99517,8.42125,22.9103,22.9103,0,0,1-.15921,3.54256c-.05007.49563-.09845.96482-.12039,1.41432A.864.864,0,0,1,66.2951,61.42936Z" fill="#403c3c"/><path d="M67.65823,65.89342a.87525.87525,0,0,1-.25485-.03825l-2.72625-.84049a.8643.8643,0,0,1,.50969-1.65174l1.90039.58621.58565-1.901a.86429.86429,0,0,1,1.65173.50969l-.84049,2.72626A.86507.86507,0,0,1,67.65823,65.89342Z" fill="#403c3c"/><path d="M23.64956,49.345h0a20.97,20.97,0,0,1,10.031-10.264l2.72722-1.30944H23.64956Z" fill="#eb9180"/><path d="M76.57881,49.345h0a20.96957,20.96957,0,0,0-10.031-10.264l-2.72722-1.30944H76.57881Z" fill="#eb9180"/></svg>