<svg id="a2264be8-b8f7-4e70-a298-7ddebae6b2a7" data-name="Capa 1" xmlns="http://www.w3.org/2000/svg" viewBox="0 0 100 100"><path d="M54.07772,16.84075a.88789.88789,0,0,1-.88766-.88767v-.24561a3.19006,3.19006,0,1,0-6.38012,0v.24561a.88767.88767,0,1,1-1.77533,0v-.24561a4.96539,4.96539,0,0,1,9.93078,0v.24561A.8879.8879,0,0,1,54.07772,16.84075Z" fill="#403c3c"/><path d="M56.58643,28.04236a2.36369,2.36369,0,0,1-2.33822-2.05331l-.0237-.18262a4.26038,4.26038,0,0,0-8.449.00057l-.0237.18205a2.36369,2.36369,0,0,1-2.33822,2.05331h-.58946a2.36132,2.36132,0,0,1-2.35845-2.35845V17.08925a2.02614,2.02614,0,0,1,2.02384-2.02384H56.921a2.02614,2.02614,0,0,1,2.02383,2.02384v8.59466A2.36132,2.36132,0,0,1,56.58643,28.04236ZM50,20.32265A6.05133,6.05133,0,0,1,55.98482,25.577l.0237.18319a.583.583,0,0,0,1.161-.07628V17.08925a.24886.24886,0,0,0-.2485-.2485H42.4895a.24886.24886,0,0,0-.2485.2485v8.59466a.584.584,0,0,0,.58311.58311h.58946a.58385.58385,0,0,0,.57791-.50683l.0237-.18261A6.05134,6.05134,0,0,1,50,20.32265Z" fill="#403c3c"/><path d="M73.89827,89.25792H26.10173A2.24466,2.24466,0,0,1,23.86,87.01563V20.74684a2.24466,2.24466,0,0,1,2.2417-2.24229h12.128a.88767.88767,0,0,1,0,1.77534h-12.128a.467.467,0,0,0-.46637.46695V87.01563a.467.467,0,0,0,.46637.467H73.89827a.467.467,0,0,0,.46637-.467V20.74684a.467.467,0,0,0-.46637-.46695H61.1808a.88767.88767,0,1,1,0-1.77534H73.89827A2.24466,2.24466,0,0,1,76.14,20.74684V87.01563A2.24466,2.24466,0,0,1,73.89827,89.25792Z" fill="#403c3c"/><path d="M61.79454,57.05511H38.20546a.8879.8879,0,0,1-.88767-.88767V32.57836a.8879.8879,0,0,1,.88767-.88767H61.79454a.8879.8879,0,0,1,.88767.88767V56.16744A.8879.8879,0,0,1,61.79454,57.05511ZM39.09313,55.27977H60.90687V33.466H39.09313Z" fill="#403c3c"/><path d="M68.26019,64.4194H31.73981a.88767.88767,0,0,1,0-1.77533H68.26019a.88767.88767,0,0,1,0,1.77533Z" fill="#403c3c"/><path d="M68.26019,71.80739H31.73981a.88767.88767,0,0,1,0-1.77534H68.26019a.88767.88767,0,0,1,0,1.77534Z" fill="#403c3c"/><path d="M68.26019,79.1948H31.73981a.88767.88767,0,0,1,0-1.77534H68.26019a.88767.88767,0,0,1,0,1.77534Z" fill="#403c3c"/><path d="M49.70527,43.5829a4.17337,4.17337,0,1,1,4.17365-4.17366A4.17855,4.17855,0,0,1,49.70527,43.5829Zm0-6.5714a2.398,2.398,0,1,0,2.39832,2.39774A2.40078,2.40078,0,0,0,49.70527,37.0115Z" fill="#403c3c"/><path d="M55.96,56.969a.88789.88789,0,0,1-.88766-.88767V47.78025a1.251,1.251,0,0,0-1.24944-1.24944h-8.2352a1.251,1.251,0,0,0-1.24944,1.24944v8.30108a.88767.88767,0,0,1-1.77534,0V47.78025a3.02823,3.02823,0,0,1,3.02478-3.02477h8.2352a3.02823,3.02823,0,0,1,3.02477,3.02477v8.30108A.8879.8879,0,0,1,55.96,56.969Z" fill="#403c3c"/><path d="M47.00146,49.19373v3.95492l.02278-.00752a8.94171,8.94171,0,0,1,5.385-.07208h0V49.19373Z" fill="#eb9180"/></svg>