<svg id="ed7556b8-063b-4543-91f4-864d98ab2d28" data-name="Capa 1" xmlns="http://www.w3.org/2000/svg" viewBox="0 0 100 100"><path d="M82.16865,79.946H17.83134a4.39008,4.39008,0,0,1-4.38545-4.38487V38.63323a.89421.89421,0,0,1,1.78841,0V75.56109a2.59971,2.59971,0,0,0,2.597,2.59646H82.16865a2.59971,2.59971,0,0,0,2.597-2.59646V38.63323a.89421.89421,0,0,1,1.78841,0V75.56109A4.39008,4.39008,0,0,1,82.16865,79.946Z" fill="#403c3c"/><path d="M29.59921,32.94607a4.20411,4.20411,0,0,1-4.19915-4.19916,4.1088,4.1088,0,0,1,.33241-1.61492.89445.89445,0,1,1,1.64636.69976,2.32754,2.32754,0,0,0-.19036.91516,2.41074,2.41074,0,1,0,4.82148,0,2.32755,2.32755,0,0,0-.19037-.91516.89445.89445,0,0,1,1.64636-.69976,4.10881,4.10881,0,0,1,.33242,1.61492A4.20411,4.20411,0,0,1,29.59921,32.94607Z" fill="#403c3c"/><path d="M29.59921,29.5829a.89444.89444,0,0,1-.89421-.8942V20.94824a.89421.89421,0,1,1,1.78841,0V28.6887A.89443.89443,0,0,1,29.59921,29.5829Z" fill="#403c3c"/><path d="M70.40078,32.94607a4.20411,4.20411,0,0,1-4.19915-4.19916A4.10881,4.10881,0,0,1,66.534,27.132a.89445.89445,0,1,1,1.64636.69976,2.32755,2.32755,0,0,0-.19037.91516,2.41074,2.41074,0,1,0,4.82148,0,2.32754,2.32754,0,0,0-.19036-.91516.89445.89445,0,0,1,1.64636-.69976,4.1088,4.1088,0,0,1,.33241,1.61492A4.20411,4.20411,0,0,1,70.40078,32.94607Z" fill="#403c3c"/><path d="M70.40078,29.5829a.89443.89443,0,0,1-.8942-.8942V20.94824a.89421.89421,0,1,1,1.78841,0V28.6887A.89444.89444,0,0,1,70.40078,29.5829Z" fill="#403c3c"/><path d="M66.7477,23.98772H33.25229a.89421.89421,0,1,1,0-1.78841H66.7477a.89421.89421,0,0,1,0,1.78841Z" fill="#403c3c"/><path d="M85.65989,39.52744H14.3401a.89444.89444,0,0,1-.89421-.89421V26.58475a4.3902,4.3902,0,0,1,4.38545-4.38544h8.11479a.89421.89421,0,0,1,0,1.78841H17.83134a2.59983,2.59983,0,0,0-2.597,2.597V37.739H84.76569V26.58475a2.59983,2.59983,0,0,0-2.597-2.597H74.05386a.89421.89421,0,0,1,0-1.78841h8.11479a4.3902,4.3902,0,0,1,4.38545,4.38544V38.63323A.89444.89444,0,0,1,85.65989,39.52744Z" fill="#403c3c"/><path d="M34.54761,54.4291a.89444.89444,0,0,1-.89421-.8942V46.287a.89421.89421,0,1,1,1.78841,0v7.248A.89443.89443,0,0,1,34.54761,54.4291Z" fill="#403c3c"/><path d="M44.849,54.4291a.89443.89443,0,0,1-.8942-.8942V46.287a.89421.89421,0,1,1,1.78841,0v7.248A.89444.89444,0,0,1,44.849,54.4291Z" fill="#403c3c"/><path d="M55.151,54.4291a.89444.89444,0,0,1-.89421-.8942V46.287a.89421.89421,0,1,1,1.78841,0v7.248A.89443.89443,0,0,1,55.151,54.4291Z" fill="#403c3c"/><path d="M65.45238,54.4291a.89443.89443,0,0,1-.8942-.8942V46.287a.89421.89421,0,1,1,1.78841,0v7.248A.89444.89444,0,0,1,65.45238,54.4291Z" fill="#403c3c"/><path d="M34.54761,72.17231a.89444.89444,0,0,1-.89421-.8942v-7.248a.89421.89421,0,0,1,1.78841,0v7.248A.89443.89443,0,0,1,34.54761,72.17231Z" fill="#403c3c"/><path d="M44.849,72.17231a.89443.89443,0,0,1-.8942-.8942v-7.248a.89421.89421,0,0,1,1.78841,0v7.248A.89444.89444,0,0,1,44.849,72.17231Z" fill="#403c3c"/><path d="M55.151,72.17231a.89444.89444,0,0,1-.89421-.8942v-7.248a.89421.89421,0,0,1,1.78841,0v7.248A.89443.89443,0,0,1,55.151,72.17231Z" fill="#403c3c"/><path d="M65.45238,72.17231a.89443.89443,0,0,1-.8942-.8942v-7.248a.89421.89421,0,0,1,1.78841,0v7.248A.89444.89444,0,0,1,65.45238,72.17231Z" fill="#403c3c"/><path d="M71.26006,59.7367H28.73993a.89421.89421,0,0,1,0-1.78841H71.26006a.89421.89421,0,0,1,0,1.78841Z" fill="#403c3c"/><path d="M62.3,29.90659H37.7a.89421.89421,0,1,1,0-1.78841H62.3a.89421.89421,0,1,1,0,1.78841Z" fill="#403c3c"/><path d="M27.31912,75.475a28.5315,28.5315,0,0,1-4.83383-14.21427c-.13931-2.51844.05885-5.0463-.07249-7.56527a14.47429,14.47429,0,0,0-2.00021-7.206,10.7665,10.7665,0,0,0-2.49579-2.63868V75.475Z" fill="#eb9180"/></svg>