<svg id="b09654b7-fc7b-4ec3-a1aa-3817a67d9dd5" data-name="Capa 1" xmlns="http://www.w3.org/2000/svg" viewBox="0 0 100 100"><path d="M58.51806,70.54833H54.59474a.96466.96466,0,0,1,0-1.92932h3.92332a17.6773,17.6773,0,0,0,9.96188-3.06041L71.34628,63.613A.12755.12755,0,0,0,71.406,63.503a3.97727,3.97727,0,0,0-1.32578-1.2322,3.90027,3.90027,0,0,0-3.669-.00063,13.35242,13.35242,0,0,1-10.87252.41388.88914.88914,0,0,1-.10739-.05841,31.63624,31.63624,0,0,0-4.77934-2.47885A19.61648,19.61648,0,0,0,31.75,62.46553a.96458.96458,0,1,1-1.11916-1.57134A21.53578,21.53578,0,0,1,51.38423,58.362a33.49242,33.49242,0,0,1,5.00982,2.59064,11.66068,11.66068,0,0,0,9.17055-.41576,5.81683,5.81683,0,0,1,5.48713.0672,5.88817,5.88817,0,0,1,1.95947,1.82821,2.01989,2.01989,0,0,1-.58156,2.77716l-2.86635,1.94565A19.6004,19.6004,0,0,1,58.51806,70.54833Z" fill="#403c3c"/><path d="M31.1898,76.42924a.96473.96473,0,0,1-.18338-1.91174c.3674-.07159,9.16929-1.73463,24.62457-.85475a21.52339,21.52339,0,0,0,11.29582-2.48764l23.59272-12.447c-.81582-.97282-2.43552-2.01473-5.62279-1.175a8.64119,8.64119,0,0,0-1.143.41073L71.88325,63.02511a.96459.96459,0,1,1-.75615-1.77482L82.99757,56.189a10.425,10.425,0,0,1,1.40742-.5018c4.42638-1.16563,6.6716.69272,7.61742,1.9042a1.9,1.9,0,0,1,.36238,1.572,1.88005,1.88005,0,0,1-.96529,1.27177L67.82741,72.8821a23.5469,23.5469,0,0,1-12.30569,2.70746c-15.19089-.86418-24.06.80514-24.1479.8221A.96618.96618,0,0,1,31.1898,76.42924Z" fill="#403c3c"/><path d="M30.95178,82.11232H22.22462a.96466.96466,0,1,1,0-1.92932h7.7625V59.596h-7.7625a.96466.96466,0,1,1,0-1.92932h8.72716a.96491.96491,0,0,1,.96466.96466V81.14766A.96491.96491,0,0,1,30.95178,82.11232Z" fill="#403c3c"/><path d="M22.22462,88.0843H8.53725a.96466.96466,0,0,1,0-1.92932H21.26V53.01236H8.53725a.96466.96466,0,1,1,0-1.92932H22.22462a.96491.96491,0,0,1,.96466.96466V87.11964A.96491.96491,0,0,1,22.22462,88.0843Z" fill="#403c3c"/><path d="M58.64744,54.66032a4.7038,4.7038,0,0,1-4.699-4.69832.96466.96466,0,0,1,1.92932,0,2.76963,2.76963,0,0,0,5.53926,0c0-1.12167-.51311-1.984-3.06857-2.81736-1.08839-.35484-4.4-1.43569-4.4-4.65122a4.69895,4.69895,0,1,1,9.3979,0,.96466.96466,0,1,1-1.92932,0,2.76963,2.76963,0,0,0-5.53926,0c0,.84533.34856,1.92932,3.0692,2.81736,2.048.6676,4.39938,1.79995,4.39938,4.65122A4.7038,4.7038,0,0,1,58.64744,54.66032Z" fill="#403c3c"/><path d="M58.64744,39.74954a.96491.96491,0,0,1-.96466-.96466V36.67783a.96466.96466,0,1,1,1.92932,0v2.10705A.96491.96491,0,0,1,58.64744,39.74954Z" fill="#403c3c"/><path d="M58.64744,56.76738a.96491.96491,0,0,1-.96466-.96466V53.69566a.96466.96466,0,1,1,1.92932,0v2.10706A.96491.96491,0,0,1,58.64744,56.76738Z" fill="#403c3c"/><path d="M78.342,60.187a.96467.96467,0,0,1-.74045-1.582c2.81673-3.382,4.76552-9.18877,2.38716-13.94738a25.26966,25.26966,0,0,0-8.324-9.36776A.9647.9647,0,1,1,72.77,33.70848a27.17328,27.17328,0,0,1,8.94445,10.08623c2.76586,5.53423.57528,12.19642-2.63083,16.045A.96244.96244,0,0,1,78.342,60.187Z" fill="#403c3c"/><path d="M38.29475,59.35739a.95991.95991,0,0,1-.68267-.28324c-3.73429-3.74057-4.60538-10.31483-2.026-15.292a27.9386,27.9386,0,0,1,8.9388-10.07367.9647.9647,0,1,1,1.10534,1.58139,26.022,26.022,0,0,0-8.33087,9.38032,11.547,11.547,0,0,0,1.67811,13.04112.96467.96467,0,0,1-.68267,1.64608Z" fill="#403c3c"/><path d="M77.88663,36.12892a.9649.9649,0,0,1-.96466-.96466V30.59908a5.69458,5.69458,0,0,0-5.68811-5.6881H46.06039a5.69445,5.69445,0,0,0-5.68748,5.6881V35.163a.96466.96466,0,1,1-1.92932,0V30.59908a7.62588,7.62588,0,0,1,7.6168-7.61742H71.23386a7.626,7.626,0,0,1,7.61743,7.61742v4.56518A.96491.96491,0,0,1,77.88663,36.12892Z" fill="#403c3c"/><path d="M55.88786,20.82939A4.45685,4.45685,0,1,1,60.345,16.37223,4.46191,4.46191,0,0,1,55.88786,20.82939Zm0-6.98437a2.52753,2.52753,0,1,0,2.52783,2.52721A2.52994,2.52994,0,0,0,55.88786,13.845Z" fill="#403c3c"/><path d="M61.40639,20.82939a.96466.96466,0,0,1,0-1.92932,2.52753,2.52753,0,1,0,0-5.055.96466.96466,0,0,1,0-1.92932,4.45685,4.45685,0,1,1,0,8.91369Z" fill="#403c3c"/><path d="M71.81668,30.7316H45.4782a.96466.96466,0,0,1,0-1.92932H71.81668a.96466.96466,0,1,1,0,1.92932Z" fill="#403c3c"/><rect x="14.34118" y="55.90638" width="4.02475" height="27.35461" fill="#eb9180"/></svg>