<svg id="ad58a41f-b497-4b65-ab30-e77417ed3a19" data-name="Capa 1" xmlns="http://www.w3.org/2000/svg" viewBox="0 0 100 100"><path d="M87.67713,51.5882H69.0872a2.8,2.8,0,0,1-2.79712-2.79655V41.42647a2.8,2.8,0,0,1,2.79712-2.79654H87.67713a2.79991,2.79991,0,0,1,2.79655,2.79654v7.36518A2.79991,2.79991,0,0,1,87.67713,51.5882ZM69.0872,40.398a1.03,1.03,0,0,0-1.02907,1.02848v7.36518a1.03,1.03,0,0,0,1.02907,1.02849H87.67713a1.02991,1.02991,0,0,0,1.02849-1.02849V41.42647A1.02991,1.02991,0,0,0,87.67713,40.398Z" fill="#403c3c"/><path d="M80.964,70.47626H39.4469a.884.884,0,1,1,0-1.76806H80.964A4.86785,4.86785,0,0,0,85.8262,63.846V50.70417a.884.884,0,1,1,1.76806,0V63.846A6.63784,6.63784,0,0,1,80.964,70.47626Z" fill="#403c3c"/><path d="M74.7626,70.47626a.884.884,0,1,1,0-1.76806A4.86735,4.86735,0,0,0,79.62418,63.846V50.70417a.884.884,0,1,1,1.76806,0V63.846A6.63734,6.63734,0,0,1,74.7626,70.47626Z" fill="#403c3c"/><path d="M80.50821,40.398a.88426.88426,0,0,1-.884-.884V26.37208a4.86735,4.86735,0,0,0-4.86158-4.86215.884.884,0,1,1,0-1.76806,6.63734,6.63734,0,0,1,6.62964,6.63021V39.514A.88426.88426,0,0,1,80.50821,40.398Z" fill="#403c3c"/><path d="M75.67928,45.109a2.4932,2.4932,0,1,0-2.49308,2.49314A2.49316,2.49316,0,0,0,75.67928,45.109Z" fill="#eb9180"/><path d="M55.375,53.28719A4.78776,4.78776,0,0,1,50.59223,48.505a.884.884,0,0,1,1.76806,0,3.01468,3.01468,0,0,0,6.02935,0c0-1.44749-.89151-2.27626-3.28863-3.05842-1.1154-.36374-4.50878-1.47051-4.50878-4.739a4.78274,4.78274,0,0,1,9.56547,0,.884.884,0,0,1-1.76806,0,3.01468,3.01468,0,0,0-6.02935,0c0,1.37323,1.0141,2.31654,3.28863,3.05841,2.09957.68489,4.50878,1.84231,4.50878,4.739A4.78776,4.78776,0,0,1,55.375,53.28719Z" fill="#403c3c"/><path d="M55.375,37.72a.88426.88426,0,0,1-.884-.884V34.63626a.884.884,0,1,1,1.768,0V36.836A.88425.88425,0,0,1,55.375,37.72Z" fill="#403c3c"/><path d="M55.375,55.48691a.88426.88426,0,0,1-.884-.884V52.40317a.884.884,0,1,1,1.768,0v2.19971A.88425.88425,0,0,1,55.375,55.48691Z" fill="#403c3c"/><path d="M10.41035,80.25813a.88426.88426,0,0,1-.884-.884,68.809,68.809,0,0,1,2.00806-18.26417c1.7577-7.7341,7.28978-17.99482,14.08058-21.77784l1.65237-.92087a.88425.88425,0,0,1,.861,1.54475l-1.653.92086c-6.3436,3.53324-11.54418,13.26331-13.2167,20.62447a67.33517,67.33517,0,0,0-1.96431,17.8728A.88426.88426,0,0,1,10.41035,80.25813Z" fill="#403c3c"/><path d="M25.26042,80.25813a.88082.88082,0,0,1-.884-.88,5.95131,5.95131,0,0,1,3.69093-5.55338c2.67626-1.08432,6.35281-3.59079,8.67914-9.37957a33.79626,33.79626,0,0,1,2.84029-5.70129c.58532-.92375,1.33871-1.9695,2.137-3.07684.70619-.98014,1.43655-1.99367,2.06734-2.95022,1.47913-2.25036,1.24547-3.055.16172-4.0069a1.18092,1.18092,0,0,1-.10359-.08633,2.31079,2.31079,0,0,0-1.72605-.50015,2.34,2.34,0,0,0-1.60863.92432l-.27453.36086A40.15405,40.15405,0,0,1,31.70762,58.181a2.85731,2.85731,0,0,1-2.23885.545,3.1954,3.1954,0,0,1-2.06906-1.48719,3.8449,3.8449,0,0,1-.545-2.04259V26.37151a6.63685,6.63685,0,0,1,6.62964-6.62964H80.964a6.63784,6.63784,0,0,1,6.63022,6.63021V39.514a.884.884,0,1,1-1.76806,0V26.37208A4.86784,4.86784,0,0,0,80.964,21.50993H33.48431a4.86686,4.86686,0,0,0-4.86158,4.86158V55.19626a2.09282,2.09282,0,0,0,.27683,1.10676,1.43091,1.43091,0,0,0,.90015.68605,1.07343,1.07343,0,0,0,.85813-.2308,38.5921,38.5921,0,0,0,8.17381-8.419l.274-.36029a4.10389,4.10389,0,0,1,5.89237-.69985c.019.01611.038.0328.05526.05007.01323.01036.0541.04144.06676.05237,2.39194,2.10187,1.48489,4.27338.14734,6.30734-.65151.9882-1.39281,2.01669-2.10936,3.0118-.78215,1.08489-1.52057,2.10993-2.07885,2.99165a32.08223,32.08223,0,0,0-2.6918,5.4118c-2.55827,6.36547-6.66187,9.14648-9.6541,10.35857a4.18656,4.18656,0,0,0-2.58878,3.90733A.88771.88771,0,0,1,25.26042,80.25813Z" fill="#403c3c"/><path d="M33.162,50.88317a.88181.88181,0,0,1-.884-.88116v-.00575a.884.884,0,1,1,.884.88691Zm0-4.72058a.8818.8818,0,0,1-.884-.88115v-.00576a.884.884,0,1,1,.884.88691Zm0-4.72058a.8818.8818,0,0,1-.884-.88115v-.00633a.884.884,0,1,1,.884.88748Zm0-4.72115a.8818.8818,0,0,1-.884-.88115V35.834a.884.884,0,1,1,.884.8869Zm0-4.72057a.88181.88181,0,0,1-.884-.88115v-.00576a.884.884,0,1,1,.884.88691Z" fill="#eb9180"/></svg>